<svg width="104" height="48" viewBox="0 0 104 48" fill="none" xmlns="http://www.w3.org/2000/svg">
<g clip-path="url(#clip0_0_937)">
<path d="M8.69368 47.7668C8.69368 47.842 8.61827 47.8796 8.49763 47.8796H7.14038C7.01974 47.8796 6.94433 47.842 6.94433 47.7668C6.94433 47.5787 7.36658 47.5787 7.14038 47.2177L5.67011 45.1945H5.42123H4.24512V47.1876C4.24512 47.5411 4.62967 47.5486 4.62967 47.7367C4.62967 47.8119 4.54672 47.8495 4.43362 47.8495H3.23468C3.12158 47.8495 3.03864 47.8119 3.03864 47.7367C3.03864 47.5486 3.393 47.5411 3.393 47.1876V41.6145C3.393 41.261 3.03864 41.2534 3.03864 41.0654C3.03864 40.9827 3.12158 40.9451 3.23468 40.9451H5.24782C6.92171 40.9451 8.19611 41.622 8.20365 43.0961C8.19269 43.5612 8.02183 44.0085 7.71988 44.3631C7.41793 44.7177 7.00305 44.9581 6.54469 45.0441L8.11308 47.2027C8.34682 47.5938 8.69368 47.5787 8.69368 47.7668ZM7.25359 43.2541C7.25648 42.988 7.20253 42.7244 7.09528 42.4808C6.98804 42.2372 6.82991 42.0192 6.63158 41.8413C6.43325 41.6634 6.19914 41.5297 5.94494 41.449C5.69075 41.3684 5.42235 41.3428 5.15744 41.3738H4.50136C4.32794 41.3738 4.24512 41.5016 4.24512 41.7122V44.3672C4.24512 44.6906 4.39577 44.826 4.65967 44.826H5.33084C6.46939 44.8109 7.25359 44.2243 7.25359 43.239V43.2541Z" fill="#B39359"/>
<path d="M14.982 46.6011C14.8606 47.0262 14.5967 47.3969 14.2345 47.6514C13.8723 47.906 13.4335 48.029 12.9914 48.0001C12.6743 48.0017 12.3605 47.9367 12.0702 47.8095C11.7799 47.6823 11.5196 47.4956 11.3063 47.2615C11.093 47.0275 10.9315 46.7513 10.8321 46.451C10.7327 46.1506 10.6976 45.8328 10.7293 45.5181C10.7172 45.207 10.768 44.8967 10.8788 44.6056C10.9896 44.3146 11.1581 44.0488 11.3742 43.8241C11.5903 43.5995 11.8495 43.4206 12.1365 43.2981C12.4234 43.1756 12.7321 43.1121 13.0442 43.1113C13.4791 43.0627 13.9155 43.1883 14.2577 43.4605C14.5998 43.7326 14.8196 44.1292 14.8688 44.5629C14.873 44.6972 14.8289 44.8286 14.7446 44.9334C14.6603 45.0382 14.5413 45.1095 14.409 45.1345L11.6945 46.0295C11.7646 46.4061 11.964 46.7464 12.2585 46.9921C12.553 47.2378 12.9243 47.3735 13.3082 47.3758C13.5992 47.3843 13.8866 47.3086 14.1354 47.1578C14.3843 47.007 14.584 46.7875 14.7105 46.5259C14.7859 46.3906 15.0122 46.4206 14.982 46.6011ZM11.5664 45.2022C11.5543 45.37 11.5543 45.5384 11.5664 45.7061L13.7529 44.954C13.8257 44.9309 13.889 44.8845 13.9326 44.8219C13.9762 44.7593 13.9979 44.6842 13.9943 44.608C13.9687 44.3114 13.839 44.0333 13.6279 43.8227C13.4169 43.6122 13.138 43.4828 12.8406 43.4573C12.0866 43.4272 11.5664 44.2094 11.5664 45.2022Z" fill="#B39359"/>
<path d="M21.9869 47.7594C21.9869 47.9023 21.7229 47.9625 21.361 47.9625C20.9991 47.9625 20.6824 47.8572 20.6447 47.3157C20.4952 47.5478 20.2845 47.7344 20.0358 47.8551C19.7871 47.9758 19.51 48.026 19.2347 48.0001C18.1564 48.0001 17.41 47.4661 17.41 46.4959C17.41 45.5256 18.164 45.0443 19.2045 45.0443C19.6411 45.0224 20.0706 45.1616 20.411 45.4354V45.1721C20.3054 44.0214 19.9886 43.3972 19.2045 43.3972C18.1866 43.3972 18.3449 44.5103 17.8548 44.5103C17.8049 44.5158 17.7544 44.5104 17.7068 44.4946C17.6592 44.4787 17.6156 44.4527 17.579 44.4184C17.5425 44.384 17.5138 44.3422 17.4951 44.2957C17.4763 44.2493 17.4677 44.1993 17.4702 44.1493C17.4702 43.6303 18.1413 43.0813 19.2045 43.0813C19.4777 43.0729 19.7499 43.1205 20.004 43.2212C20.258 43.3219 20.4886 43.4735 20.6816 43.6667C20.8745 43.8598 21.0256 44.0904 21.1256 44.3442C21.2256 44.598 21.2723 44.8696 21.2629 45.1421L21.4589 47.0901C21.4966 47.7294 21.9869 47.5112 21.9869 47.7594ZM20.5164 46.6162L20.4789 46.1725C20.4161 45.9409 20.2736 45.7387 20.0765 45.6012C19.8794 45.4637 19.6401 45.3997 19.4005 45.4204C19.2581 45.4068 19.1144 45.4229 18.9786 45.4676C18.8428 45.5124 18.7179 45.5848 18.6115 45.6802C18.5052 45.7757 18.4199 45.8921 18.361 46.0222C18.3022 46.1522 18.271 46.293 18.2695 46.4357C18.2582 46.5987 18.2804 46.7622 18.3345 46.9164C18.3886 47.0706 18.4737 47.2121 18.5845 47.3325C18.6952 47.4528 18.8294 47.5494 18.9788 47.6163C19.1282 47.6833 19.2896 47.7192 19.4534 47.7218C19.5988 47.7289 19.7439 47.7047 19.8791 47.651C20.0144 47.5973 20.1366 47.5153 20.2374 47.4105C20.3381 47.3057 20.4151 47.1806 20.4632 47.0436C20.5114 46.9066 20.5296 46.7608 20.5164 46.6162Z" fill="#B39359"/>
<path d="M24.1961 47.7744C24.1961 47.5789 24.5354 47.5939 24.5354 47.2479V41.7575C24.5354 41.3739 24.1961 41.3137 24.1961 41.1708C24.1961 41.0956 24.2413 41.0655 24.3318 41.0129L25.0858 40.6443C25.2818 40.5466 25.3949 40.6443 25.3949 40.7797V47.2705C25.3949 47.6165 25.7719 47.6014 25.7719 47.797C25.7719 47.8797 25.6965 47.9248 25.5758 47.9248H24.3695C24.264 47.9023 24.1961 47.8571 24.1961 47.7744Z" fill="#B39359"/>
<path d="M32.543 47.7894C32.543 47.6013 32.9049 47.6013 32.9049 47.2328V41.6521C32.9049 41.2836 32.543 41.276 32.543 41.0955C32.543 41.0279 32.6108 40.9902 32.7239 40.9902H36.8785C37.0368 40.9902 37.0895 41.073 37.1197 41.2084L37.361 42.1711C37.361 42.314 37.3611 42.3666 37.2404 42.3666H37.1876C36.886 42.3666 36.6521 41.3889 36.1394 41.3889H34.0659C33.8849 41.3889 33.787 41.4866 33.787 41.7273V44.1792H35.5739C35.9434 44.1792 35.9358 43.6001 36.1394 43.6001H36.1847C36.2601 43.6001 36.3054 43.6602 36.3054 43.7655V44.9689C36.3054 45.0667 36.2601 45.1344 36.1847 45.1344H36.1394C35.9358 45.1344 35.9434 44.5778 35.5739 44.5778H33.787V47.1125C33.7807 47.1643 33.7853 47.2168 33.8004 47.2667C33.8156 47.3167 33.841 47.3629 33.875 47.4025C33.909 47.4421 33.951 47.4743 33.9981 47.4968C34.0453 47.5194 34.0966 47.5319 34.1489 47.5336H36.4562C36.9765 47.5336 37.1423 46.5258 37.4816 46.5258H37.5419C37.6324 46.5258 37.6776 46.6161 37.6625 46.7213L37.4214 47.7066C37.4215 47.7382 37.415 47.7696 37.4022 47.7985C37.3895 47.8275 37.3706 47.8534 37.3472 47.8747C37.3237 47.896 37.2961 47.9121 37.266 47.922C37.2359 47.9319 37.204 47.9354 37.1725 47.9323H32.7615C32.6408 47.9022 32.543 47.8646 32.543 47.7894Z" fill="#B39359"/>
<path d="M39.9623 46.8794C39.9585 46.8291 39.966 46.7785 39.9843 46.7314C40.0026 46.6843 40.0313 46.6419 40.0682 46.6072C40.1051 46.5726 40.1492 46.5467 40.1974 46.5313C40.2457 46.5159 40.2967 46.5115 40.3469 46.5184C40.9576 46.5184 40.6411 47.7067 41.953 47.7067C42.5789 47.7067 43.0689 47.4059 43.0689 46.8493C43.0689 45.4128 40.0529 46.3755 40.0529 44.4501C40.0529 43.698 40.8069 43.1113 41.8926 43.1113C43.1066 43.1113 43.8079 43.7356 43.8079 44.2696C43.8079 44.3153 43.7986 44.3606 43.7806 44.4027C43.7626 44.4447 43.7362 44.4828 43.7031 44.5144C43.67 44.546 43.6308 44.5706 43.5879 44.5867C43.545 44.6028 43.4993 44.6101 43.4535 44.608C42.8955 44.608 43.1368 43.4122 41.9455 43.4122C41.8212 43.4009 41.6959 43.4147 41.5771 43.4528C41.4584 43.4909 41.3486 43.5526 41.2542 43.634C41.1599 43.7155 41.083 43.8151 41.0282 43.9269C40.9734 44.0387 40.9416 44.1603 40.935 44.2846C40.935 45.6911 43.9511 44.7284 43.9511 46.6839C43.9511 47.436 43.1972 48.0076 41.9681 48.0076C40.7391 48.0076 39.9623 47.3382 39.9623 46.8794Z" fill="#B39359"/>
<path d="M46.8764 46.541V43.6153H46.2281C46.209 43.6163 46.1898 43.6134 46.1719 43.6066C46.1541 43.5998 46.1378 43.5893 46.1243 43.5758C46.1107 43.5623 46.1003 43.5461 46.0935 43.5283C46.0867 43.5105 46.0838 43.4914 46.0849 43.4724V43.3746C46.0826 43.3549 46.0846 43.335 46.0909 43.3163C46.0972 43.2975 46.1077 43.2804 46.1213 43.266C46.135 43.2517 46.1516 43.2405 46.1701 43.2333C46.1886 43.2261 46.2083 43.2229 46.2281 43.2242H46.5824C47.0499 43.2242 47.2761 42.8556 47.3365 42.2991C47.3365 42.1712 47.4118 42.1035 47.5023 42.1035H47.6004C47.7135 42.1035 47.7587 42.1712 47.7587 42.2991V43.2242H49.1084C49.1484 43.2242 49.1867 43.24 49.215 43.2682C49.2433 43.2964 49.2592 43.3347 49.2592 43.3746V43.4724C49.2592 43.4918 49.2553 43.511 49.2476 43.5288C49.2399 43.5467 49.2288 43.5628 49.2147 43.5762C49.2005 43.5895 49.1838 43.5999 49.1655 43.6066C49.1472 43.6133 49.1279 43.6163 49.1084 43.6153H47.7587V46.541C47.7587 47.0825 48.0152 47.3608 48.3771 47.3608C48.4655 47.3734 48.5553 47.3681 48.6416 47.3452C48.7279 47.3223 48.8087 47.2823 48.8791 47.2275C48.9495 47.1727 49.0081 47.1043 49.0514 47.0264C49.0947 46.9485 49.1218 46.8627 49.1311 46.7741C49.1422 46.7403 49.1649 46.7115 49.1953 46.6929C49.2258 46.6742 49.2618 46.667 49.2971 46.6724C49.3324 46.6778 49.3646 46.6956 49.3881 46.7225C49.4115 46.7493 49.4246 46.7837 49.4251 46.8193C49.4242 46.9802 49.3907 47.1393 49.3268 47.2871C49.2628 47.4348 49.1695 47.5682 49.0527 47.6791C48.9358 47.7901 48.7977 47.8764 48.6466 47.9328C48.4955 47.9893 48.3347 48.0147 48.1735 48.0076C47.3818 48.0001 46.8764 47.5187 46.8764 46.541Z" fill="#B39359"/>
<path d="M56.2564 47.7592C56.2564 47.9021 55.9925 47.9623 55.6305 47.9623C55.2686 47.9623 54.952 47.857 54.9143 47.3155C54.7648 47.5475 54.5542 47.7341 54.3055 47.8549C54.0568 47.9756 53.7795 48.0257 53.5042 47.9999C52.426 47.9999 51.6796 47.4659 51.6796 46.4957C51.6796 45.5254 52.4335 45.0441 53.474 45.0441C53.9107 45.0222 54.3402 45.1614 54.6805 45.4352V45.1719C54.5749 44.0212 54.2582 43.397 53.474 43.397C52.4561 43.397 52.6146 44.5101 52.1245 44.5101C52.0746 44.5156 52.0239 44.5102 51.9763 44.4943C51.9287 44.4785 51.8851 44.4525 51.8486 44.4181C51.812 44.3838 51.7834 44.342 51.7646 44.2955C51.7458 44.249 51.7375 44.1991 51.7399 44.1491C51.7399 43.6301 52.4033 43.0811 53.474 43.0811C54.6804 43.0811 55.4044 43.8332 55.5326 45.1419L55.7287 47.0898C55.7664 47.7291 56.2564 47.511 56.2564 47.7592ZM54.7484 46.616V46.1723C54.6857 45.9407 54.5433 45.7385 54.3462 45.601C54.1491 45.4635 53.9097 45.3995 53.6701 45.4201C53.5274 45.4054 53.3834 45.4207 53.247 45.465C53.1107 45.5093 52.9851 45.5816 52.8785 45.6773C52.7719 45.773 52.6868 45.8899 52.6283 46.0205C52.5699 46.1511 52.5393 46.2925 52.5391 46.4355C52.5267 46.5981 52.5478 46.7615 52.6011 46.9156C52.6544 47.0698 52.7387 47.2114 52.8489 47.3319C52.959 47.4523 53.0927 47.549 53.2417 47.6161C53.3907 47.6831 53.5519 47.719 53.7153 47.7216C53.861 47.7285 54.0067 47.7044 54.1422 47.6507C54.2778 47.5971 54.4002 47.5152 54.5016 47.4106C54.6029 47.3059 54.6808 47.1809 54.7298 47.0439C54.7789 46.9069 54.7981 46.761 54.7862 46.616H54.7484Z" fill="#B39359"/>
<path d="M58.9257 46.541V43.6153H58.2772C58.2577 43.6163 58.2384 43.6133 58.2201 43.6066C58.2018 43.5999 58.1851 43.5895 58.1709 43.5762C58.1568 43.5628 58.1457 43.5467 58.138 43.5288C58.1303 43.511 58.1264 43.4918 58.1264 43.4724V43.3746C58.124 43.3543 58.1261 43.3336 58.1328 43.3143C58.1396 43.2949 58.1507 43.2773 58.1652 43.2629C58.1798 43.2484 58.1974 43.2374 58.2168 43.2307C58.2362 43.224 58.2568 43.2217 58.2772 43.2242H58.6315C59.099 43.2242 59.3252 42.8556 59.3855 42.2991C59.3855 42.1712 59.4684 42.1035 59.5514 42.1035H59.6495C59.7701 42.1035 59.8078 42.1712 59.8078 42.2991V43.2242H61.1575C61.1962 43.2261 61.2326 43.2428 61.2593 43.2708C61.286 43.2988 61.3008 43.336 61.3007 43.3746V43.4724C61.3007 43.5103 61.2856 43.5466 61.2588 43.5734C61.2319 43.6002 61.1955 43.6153 61.1575 43.6153H59.7852V46.541C59.7852 47.0825 60.034 47.3608 60.396 47.3608C60.4842 47.3724 60.5739 47.3663 60.6597 47.343C60.7456 47.3197 60.8259 47.2795 60.8961 47.2249C60.9663 47.1703 61.0248 47.1024 61.0684 47.025C61.112 46.9476 61.1397 46.8623 61.15 46.7741C61.1611 46.7403 61.184 46.7115 61.2144 46.6929C61.2448 46.6742 61.2809 46.667 61.3162 46.6724C61.3515 46.6778 61.3837 46.6956 61.4071 46.7225C61.4305 46.7493 61.4435 46.7837 61.4439 46.8193C61.4421 46.9806 61.4077 47.1398 61.3429 47.2876C61.2781 47.4354 61.1842 47.5687 61.0668 47.6795C60.9493 47.7904 60.8107 47.8766 60.6592 47.9329C60.5077 47.9893 60.3464 48.0147 60.1848 48.0076C59.4308 48.0001 58.9257 47.5187 58.9257 46.541Z" fill="#B39359"/>
<path d="M67.9208 46.6011C67.8006 47.0269 67.537 47.3984 67.1745 47.6532C66.812 47.908 66.3725 48.0305 65.9301 48.0001C65.613 48.0017 65.2992 47.9367 65.0089 47.8095C64.7186 47.6823 64.4583 47.4956 64.245 47.2615C64.0317 47.0275 63.8702 46.7513 63.7708 46.451C63.6714 46.1506 63.6364 45.8328 63.6681 45.5181C63.6559 45.207 63.7068 44.8967 63.8175 44.6056C63.9283 44.3146 64.0968 44.0488 64.3129 43.8241C64.529 43.5995 64.7883 43.4206 65.0752 43.2981C65.3621 43.1756 65.6708 43.1121 65.9829 43.1113C66.4178 43.0627 66.8543 43.1883 67.1964 43.4605C67.5385 43.7326 67.7583 44.1292 67.8076 44.5629C67.8117 44.6972 67.7678 44.8286 67.6835 44.9334C67.5992 45.0382 67.4801 45.1095 67.3477 45.1345L64.6332 46.0295C64.7033 46.4061 64.9028 46.7464 65.1973 46.9921C65.4917 47.2378 65.863 47.3735 66.2469 47.3758C66.5392 47.3913 66.8295 47.3185 67.0797 47.1669C67.3299 47.0152 67.5283 46.7919 67.6492 46.5259C67.7246 46.3906 67.9509 46.4206 67.9208 46.6011ZM64.5126 45.2022C64.5093 45.371 64.522 45.5397 64.5504 45.7061L66.7369 44.954C66.809 44.9307 66.8713 44.8839 66.9136 44.8212C66.956 44.7585 66.9761 44.6835 66.9707 44.608C66.9454 44.3126 66.8167 44.0354 66.6071 43.825C66.3976 43.6146 66.1206 43.4845 65.8246 43.4573C65.0631 43.4272 64.5126 44.2094 64.5126 45.2022Z" fill="#B39359"/>
<path d="M28.9763 11.7706H20.8934L25.4854 16.351C26.4513 15.8221 27.2821 15.0784 27.9132 14.1774C28.4154 13.4485 28.776 12.6321 28.9763 11.7706ZM3.27994 0H22.1301C23.471 0.00314083 24.798 0.270533 26.035 0.78682C27.2721 1.30311 28.3948 2.05811 29.3384 3.00846C30.2917 3.95086 31.0488 5.07189 31.5664 6.30711C32.084 7.54234 32.3519 8.86743 32.3544 10.2062C32.3561 12.2742 31.7217 14.2928 30.5372 15.99C29.8036 17.0453 28.8778 17.9535 27.8078 18.6675L29.3158 20.1717C30.2827 21.114 31.0517 22.239 31.5778 23.481C32.0824 24.7206 32.3386 26.0467 32.3318 27.3845C32.3301 28.7234 32.0627 30.0488 31.545 31.2841C31.0274 32.5194 30.2697 33.6404 29.3158 34.5823C28.3725 35.5352 27.2489 36.2918 26.0102 36.8083C24.7715 37.3247 23.4424 37.5907 22.0999 37.5907H3.24975V27.8734L6.42408 24.7145V34.4168H22.0923C23.0165 34.4182 23.9319 34.2375 24.7859 33.8851C25.6398 33.5328 26.4157 33.0157 27.0689 32.3635C27.7226 31.712 28.2409 30.9381 28.5942 30.0863C28.9474 29.2344 29.1286 28.3214 29.1273 27.3996C29.1301 26.4762 28.9506 25.5613 28.5993 24.707C28.2477 23.8647 27.7355 23.0984 27.0913 22.4506L17.0632 12.455L-6.10352e-05 29.4754V25.0003L16.4071 8.63429H28.9763C28.675 7.35568 28.0222 6.1862 27.0913 5.25728C26.44 4.60364 25.6661 4.08452 24.8135 3.72961C23.9608 3.37471 23.0464 3.19098 22.1225 3.18896H6.45427V16.8323L3.27994 19.9987V0Z" fill="#0B2C3D"/>
<path fill-rule="evenodd" clip-rule="evenodd" d="M21.0293 19.7808V22.9472H17.8624V19.7808H21.0293ZM21.0293 27.693H17.8624V24.5341H21.0293V27.693ZM13.0972 27.693V24.5341H16.2715V27.693H13.0972ZM13.0972 19.7808H16.2715V22.9472H13.0972V19.7808Z" fill="#B39359"/>
<path d="M58.7973 32.1906C58.262 34.8531 55.3289 38.5384 49.7492 38.5384C44.0113 38.5384 39.4269 34.1912 39.4269 27.2567C39.4269 20.9991 44.0112 16.3435 49.9302 16.3435C55.2685 16.3435 58.2243 19.8483 58.2243 22.9095C58.2243 24.331 57.4702 25.0831 56.1356 25.5268L43.8153 29.5657C44.8332 33.3864 47.5853 35.6879 51.1518 35.6879C52.4777 35.7537 53.793 35.4211 54.9275 34.7333C56.062 34.0454 56.9635 33.0339 57.5155 31.8296C57.9076 31.2203 58.933 31.3482 58.7973 32.1906ZM43.3175 25.8502C43.308 26.606 43.366 27.3611 43.491 28.1066L53.4138 24.5566C53.7423 24.4583 54.0273 24.2512 54.2219 23.9696C54.4166 23.6879 54.5092 23.3484 54.4844 23.0072C54.4844 21.0066 52.3431 17.7424 49.2743 17.7424C45.6702 17.7725 43.3175 21.3225 43.3175 25.8502Z" fill="#0B2C3D"/>
<path d="M78.59 19.7655C78.59 20.9237 78.0623 21.8564 76.8106 21.8564C74.5034 21.8564 75.6117 18.7426 72.8521 18.7426C70.4091 18.7426 69.0821 21.5405 69.0821 24.8723V34.9883C69.0821 36.5452 70.952 36.5903 70.952 37.3875V37.5605C70.952 37.914 70.6353 38.0945 70.0547 38.0945H64.5429C63.9623 38.0945 63.6531 37.914 63.6531 37.5605V37.3875C63.6531 36.5903 65.2969 36.5452 65.2969 34.9883V21.4954C65.2969 19.8106 63.5174 19.7655 63.5174 18.9231V18.8329C63.5174 18.5245 63.7889 18.2613 64.1886 18.0356L67.5665 16.5314C68.411 16.1328 68.7277 16.5314 68.7277 17.1556V20.7056C69.7004 17.8626 71.7437 16.3584 74.5109 16.3584C77.2781 16.3584 78.59 17.9002 78.59 19.7655Z" fill="#0B2C3D"/>
<path d="M103.992 17.3286V17.4565C103.992 18.344 102.839 18.2988 101.994 20.2092L93.5872 38.7188C91.8455 42.6223 89.8171 47.5035 85.4439 47.5035C82.1037 47.5035 79.9698 45.2847 79.9698 43.5549C79.9493 43.3243 79.9783 43.0921 80.0547 42.8736C80.1311 42.655 80.2532 42.4552 80.4129 42.2873C80.5726 42.1195 80.7664 41.9874 80.9812 41.8999C81.196 41.8124 81.4269 41.7715 81.6588 41.7799C83.9736 41.7799 83.3552 45.9541 86.1073 45.9541C88.0225 45.9541 89.9831 42.8404 91.5363 38.9369L82.9934 20.134C82.1037 18.2688 80.8595 18.3139 80.8595 17.4264V17.2985C80.8595 16.9375 81.1687 16.7645 81.5307 16.7645H87.3138C87.3901 16.7562 87.4673 16.7637 87.5406 16.7865C87.6139 16.8093 87.6818 16.8469 87.7398 16.897C87.7978 16.9472 87.8448 17.0087 87.8779 17.0778C87.911 17.1468 87.9295 17.222 87.9322 17.2985V17.4264C87.9322 18.3139 86.3337 18.2688 87.1782 20.1791L93.5872 35.2214L99.9434 20.5326C100.924 18.2763 98.2545 18.3139 98.2545 17.4264V17.2985C98.2545 16.9826 98.5258 16.7645 98.9254 16.7645H103.374C103.729 16.7946 103.992 16.9676 103.992 17.3286Z" fill="#0B2C3D"/>
</g>
<defs>
<clipPath id="clip0_0_937">
<rect width="104" height="48" fill="white"/>
</clipPath>
</defs>
</svg>
